<?xml version="1.0" standalone="no"?>
<!DOCTYPE svg PUBLIC "-//W3C//DTD SVG 20010904//EN"
 "http://www.w3.org/TR/2001/REC-SVG-20010904/DTD/svg10.dtd">
<svg version="1.0" xmlns="http://www.w3.org/2000/svg"
 width="1024.000000pt" height="1024.000000pt" viewBox="0 0 1024.000000 1024.000000"
 preserveAspectRatio="xMidYMid meet">
<metadata>
Created by potrace 1.14, written by Peter Selinger 2001-2017
</metadata>
<g transform="translate(0.000000,1024.000000) scale(0.100000,-0.100000)"
fill="#000000" stroke="none">
<path d="M7825 7840 c-32 -4 -65 -6 -72 -3 -7 3 -28 -4 -46 -16 -40 -25 -54
-27 -37 -6 10 12 10 15 -2 15 -8 0 -18 -3 -22 -7 -8 -8 -46 -14 -321 -52 -82
-12 -186 -28 -229 -36 -77 -15 -201 -31 -471 -60 -71 -8 -222 -28 -335 -45
-113 -17 -243 -35 -290 -40 -395 -43 -443 -53 -469 -104 -6 -12 -27 -41 -46
-66 -20 -25 -45 -64 -56 -87 -11 -24 -24 -43 -29 -43 -6 0 -10 -5 -10 -12 0
-6 -18 -42 -40 -79 l-40 -67 1 -2639 c0 -1451 4 -2647 8 -2657 7 -19 8 -19 13
2 4 12 13 22 22 22 10 0 16 9 16 25 0 13 6 28 14 32 10 6 16 43 20 138 4 71
11 168 16 215 10 89 21 229 70 880 16 217 34 456 40 530 6 74 19 254 30 400
25 334 36 485 55 730 9 107 20 260 25 340 6 80 15 192 20 250 5 58 13 157 16
220 7 128 9 138 88 364 58 163 64 199 45 257 -15 48 -68 157 -79 164 -6 4 -10
17 -10 30 0 13 -4 26 -9 29 -16 10 -59 218 -65 316 -7 111 12 245 44 323 45
107 222 207 480 272 161 41 238 50 425 50 157 0 190 -3 260 -23 150 -42 267
-105 249 -133 -2 -4 6 -9 18 -11 32 -4 57 -63 68 -162 21 -175 8 -357 -40
-604 -14 -69 -19 -123 -15 -140 l8 -27 8 28 c4 16 12 34 17 40 6 7 45 80 87
164 42 84 83 157 91 164 8 6 14 19 14 28 0 9 4 21 9 26 5 6 36 63 69 128 33
65 65 123 70 130 9 11 80 148 294 566 49 96 98 186 109 199 15 19 16 28 8 38
-6 8 -17 13 -23 13 -6 -1 -38 -5 -71 -9z"/>
<path d="M2320 7826 c0 -21 56 -132 71 -141 6 -4 18 -22 26 -39 20 -43 48 -93
60 -108 6 -7 27 -51 48 -98 21 -47 46 -94 55 -105 10 -11 50 -81 89 -155 75
-144 77 -148 170 -340 33 -69 81 -161 105 -205 25 -44 69 -127 98 -185 61
-122 56 -115 64 -107 3 3 1 36 -4 74 -6 37 -16 106 -23 153 -12 91 -12 89 -28
195 -30 206 -22 337 26 441 22 49 72 104 93 104 8 0 20 8 27 19 6 10 22 21 35
24 13 3 43 13 68 22 115 44 401 58 611 30 207 -27 359 -80 548 -190 74 -43
120 -158 128 -321 11 -211 -25 -382 -116 -559 -41 -82 -46 -96 -46 -160 0 -45
7 -83 17 -105 9 -19 37 -92 62 -162 l46 -128 25 -352 c14 -194 27 -364 30
-378 3 -14 12 -119 20 -235 8 -115 21 -298 29 -405 9 -107 20 -260 26 -340 5
-80 14 -199 20 -265 6 -66 19 -244 30 -395 22 -304 25 -336 40 -430 5 -36 15
-207 20 -380 14 -453 32 -577 103 -720 l32 -65 5 155 c3 85 5 1285 5 2665 l0
2510 -91 140 c-51 77 -101 150 -112 162 -11 12 -22 32 -24 44 -4 30 -83 55
-213 69 -55 6 -165 17 -245 25 -154 16 -439 53 -655 85 -71 11 -249 36 -395
56 -463 63 -581 80 -662 94 -31 6 -93 13 -137 17 -72 5 -81 4 -81 -11z"/>
</g>
</svg>
